<mxfile host="app.diagrams.net" agent="Mozilla/5.0 (Windows NT 10.0; Win64; x64) AppleWebKit/537.36 (KHTML, like Gecko) Chrome/133.0.0.0 Safari/537.36" version="26.0.4">
  <diagram name="Page-1" id="e7e014a7-5840-1c2e-5031-d8a46d1fe8dd">
    <mxGraphModel dx="1134" dy="589" grid="1" gridSize="10" guides="1" tooltips="1" connect="1" arrows="1" fold="1" page="1" pageScale="1" pageWidth="1169" pageHeight="826" background="none" math="0" shadow="0">
      <root>
        <mxCell id="0" />
        <mxCell id="1" parent="0" />
        <mxCell id="0HiwVtReSsMU2_YjMYDt-55" value="" style="ellipse;fillColor=strokeColor;html=1;" parent="1" vertex="1">
          <mxGeometry x="200" y="31" width="40" height="40" as="geometry" />
        </mxCell>
        <mxCell id="0HiwVtReSsMU2_YjMYDt-64" style="edgeStyle=orthogonalEdgeStyle;rounded=0;orthogonalLoop=1;jettySize=auto;html=1;exitX=0.5;exitY=1;exitDx=0;exitDy=0;endArrow=classic;endFill=1;" parent="1" target="0HiwVtReSsMU2_YjMYDt-72" edge="1">
          <mxGeometry relative="1" as="geometry">
            <mxPoint x="220" y="181" as="targetPoint" />
            <mxPoint x="220" y="71" as="sourcePoint" />
          </mxGeometry>
        </mxCell>
        <mxCell id="0HiwVtReSsMU2_YjMYDt-76" style="edgeStyle=orthogonalEdgeStyle;rounded=0;orthogonalLoop=1;jettySize=auto;html=1;exitX=0.5;exitY=1;exitDx=0;exitDy=0;endArrow=classic;endFill=1;entryX=0.5;entryY=0;entryDx=0;entryDy=0;" parent="1" source="0HiwVtReSsMU2_YjMYDt-72" target="0HiwVtReSsMU2_YjMYDt-96" edge="1">
          <mxGeometry relative="1" as="geometry">
            <mxPoint x="219.20000000000005" y="224.60000000000002" as="targetPoint" />
          </mxGeometry>
        </mxCell>
        <mxCell id="0HiwVtReSsMU2_YjMYDt-88" value="是否新增行程?" style="edgeLabel;html=1;align=center;verticalAlign=middle;resizable=0;points=[];" parent="0HiwVtReSsMU2_YjMYDt-76" vertex="1" connectable="0">
          <mxGeometry x="-0.3248" y="3" relative="1" as="geometry">
            <mxPoint as="offset" />
          </mxGeometry>
        </mxCell>
        <mxCell id="0HiwVtReSsMU2_YjMYDt-72" value="查看日程表" style="html=1;dashed=0;rounded=1;absoluteArcSize=1;arcSize=20;verticalAlign=middle;align=center;whiteSpace=wrap;" parent="1" vertex="1">
          <mxGeometry x="160" y="121" width="120" height="50" as="geometry" />
        </mxCell>
        <mxCell id="0HiwVtReSsMU2_YjMYDt-99" style="rounded=0;orthogonalLoop=1;jettySize=auto;html=1;exitX=0.5;exitY=1;exitDx=0;exitDy=0;entryX=0.5;entryY=0;entryDx=0;entryDy=0;" parent="1" source="0HiwVtReSsMU2_YjMYDt-96" target="0HiwVtReSsMU2_YjMYDt-104" edge="1">
          <mxGeometry relative="1" as="geometry">
            <mxPoint x="219.9655172413793" y="281" as="targetPoint" />
          </mxGeometry>
        </mxCell>
        <mxCell id="0HiwVtReSsMU2_YjMYDt-101" style="edgeStyle=orthogonalEdgeStyle;rounded=0;orthogonalLoop=1;jettySize=auto;html=1;exitX=1;exitY=0.5;exitDx=0;exitDy=0;entryX=1;entryY=0.75;entryDx=0;entryDy=0;" parent="1" source="0HiwVtReSsMU2_YjMYDt-96" target="0HiwVtReSsMU2_YjMYDt-139" edge="1">
          <mxGeometry relative="1" as="geometry">
            <mxPoint x="280" y="231" as="targetPoint" />
            <Array as="points">
              <mxPoint x="350" y="231" />
              <mxPoint x="350" y="931" />
              <mxPoint x="280" y="931" />
            </Array>
          </mxGeometry>
        </mxCell>
        <mxCell id="0HiwVtReSsMU2_YjMYDt-102" value="否" style="edgeLabel;html=1;align=center;verticalAlign=middle;resizable=0;points=[];" parent="0HiwVtReSsMU2_YjMYDt-101" vertex="1" connectable="0">
          <mxGeometry x="-0.0565" y="-1" relative="1" as="geometry">
            <mxPoint x="-39" y="-270" as="offset" />
          </mxGeometry>
        </mxCell>
        <mxCell id="0HiwVtReSsMU2_YjMYDt-96" value="" style="rhombus;aspect=fixed;" parent="1" vertex="1">
          <mxGeometry x="210" y="221" width="20" height="20" as="geometry" />
        </mxCell>
        <mxCell id="0HiwVtReSsMU2_YjMYDt-109" style="edgeStyle=orthogonalEdgeStyle;rounded=0;orthogonalLoop=1;jettySize=auto;html=1;entryX=0.5;entryY=0;entryDx=0;entryDy=0;exitX=0.5;exitY=1;exitDx=0;exitDy=0;" parent="1" source="y3JBYWDsK3w07EpLnPRo-3" target="0HiwVtReSsMU2_YjMYDt-122" edge="1">
          <mxGeometry relative="1" as="geometry">
            <mxPoint x="220" y="471" as="targetPoint" />
            <mxPoint x="220" y="501" as="sourcePoint" />
          </mxGeometry>
        </mxCell>
        <mxCell id="0HiwVtReSsMU2_YjMYDt-111" value="是否生成推薦排程?" style="edgeLabel;html=1;align=center;verticalAlign=middle;resizable=0;points=[];" parent="0HiwVtReSsMU2_YjMYDt-109" vertex="1" connectable="0">
          <mxGeometry x="-0.0121" y="-2" relative="1" as="geometry">
            <mxPoint x="2" y="-1" as="offset" />
          </mxGeometry>
        </mxCell>
        <mxCell id="y3JBYWDsK3w07EpLnPRo-16" style="edgeStyle=orthogonalEdgeStyle;rounded=0;orthogonalLoop=1;jettySize=auto;html=1;entryX=1;entryY=0.5;entryDx=0;entryDy=0;exitX=1;exitY=0.5;exitDx=0;exitDy=0;" parent="1" source="y3JBYWDsK3w07EpLnPRo-3" target="0HiwVtReSsMU2_YjMYDt-136" edge="1">
          <mxGeometry relative="1" as="geometry">
            <Array as="points">
              <mxPoint x="390" y="391" />
              <mxPoint x="390" y="786" />
            </Array>
          </mxGeometry>
        </mxCell>
        <mxCell id="0HiwVtReSsMU2_YjMYDt-104" value="建立行程" style="html=1;dashed=0;rounded=1;absoluteArcSize=1;arcSize=20;verticalAlign=middle;align=center;whiteSpace=wrap;" parent="1" vertex="1">
          <mxGeometry x="160" y="291" width="120" height="50" as="geometry" />
        </mxCell>
        <mxCell id="0HiwVtReSsMU2_YjMYDt-112" value="查看推薦排程" style="html=1;dashed=0;rounded=1;absoluteArcSize=1;arcSize=20;verticalAlign=middle;align=center;whiteSpace=wrap;" parent="1" vertex="1">
          <mxGeometry x="160" y="621" width="120" height="50" as="geometry" />
        </mxCell>
        <mxCell id="0HiwVtReSsMU2_YjMYDt-118" style="rounded=0;orthogonalLoop=1;jettySize=auto;html=1;exitX=0.5;exitY=1;exitDx=0;exitDy=0;entryX=0.5;entryY=0;entryDx=0;entryDy=0;" parent="1" source="0HiwVtReSsMU2_YjMYDt-122" target="0HiwVtReSsMU2_YjMYDt-112" edge="1">
          <mxGeometry relative="1" as="geometry">
            <mxPoint x="220" y="631" as="targetPoint" />
          </mxGeometry>
        </mxCell>
        <mxCell id="0HiwVtReSsMU2_YjMYDt-120" style="edgeStyle=orthogonalEdgeStyle;rounded=0;orthogonalLoop=1;jettySize=auto;html=1;exitX=1;exitY=0.5;exitDx=0;exitDy=0;entryX=1;entryY=0.5;entryDx=0;entryDy=0;" parent="1" source="0HiwVtReSsMU2_YjMYDt-122" target="0HiwVtReSsMU2_YjMYDt-139" edge="1">
          <mxGeometry relative="1" as="geometry">
            <mxPoint x="280" y="581" as="targetPoint" />
            <Array as="points">
              <mxPoint x="340" y="581" />
              <mxPoint x="340" y="918" />
            </Array>
          </mxGeometry>
        </mxCell>
        <mxCell id="0HiwVtReSsMU2_YjMYDt-121" value="否" style="edgeLabel;html=1;align=center;verticalAlign=middle;resizable=0;points=[];" parent="0HiwVtReSsMU2_YjMYDt-120" vertex="1" connectable="0">
          <mxGeometry x="-0.0565" y="-1" relative="1" as="geometry">
            <mxPoint x="-39" y="-101" as="offset" />
          </mxGeometry>
        </mxCell>
        <mxCell id="0HiwVtReSsMU2_YjMYDt-122" value="" style="rhombus;aspect=fixed;" parent="1" vertex="1">
          <mxGeometry x="210" y="571" width="20" height="20" as="geometry" />
        </mxCell>
        <mxCell id="0HiwVtReSsMU2_YjMYDt-129" style="edgeStyle=orthogonalEdgeStyle;rounded=0;orthogonalLoop=1;jettySize=auto;html=1;entryX=0.5;entryY=0;entryDx=0;entryDy=0;exitX=0.5;exitY=1;exitDx=0;exitDy=0;" parent="1" source="0HiwVtReSsMU2_YjMYDt-112" target="0HiwVtReSsMU2_YjMYDt-135" edge="1">
          <mxGeometry relative="1" as="geometry">
            <mxPoint x="220" y="711" as="targetPoint" />
            <mxPoint x="350" y="691" as="sourcePoint" />
          </mxGeometry>
        </mxCell>
        <mxCell id="0HiwVtReSsMU2_YjMYDt-130" value="是否接受推薦排程?" style="edgeLabel;html=1;align=center;verticalAlign=middle;resizable=0;points=[];" parent="0HiwVtReSsMU2_YjMYDt-129" vertex="1" connectable="0">
          <mxGeometry x="-0.0121" y="-2" relative="1" as="geometry">
            <mxPoint x="-2" y="-1" as="offset" />
          </mxGeometry>
        </mxCell>
        <mxCell id="0HiwVtReSsMU2_YjMYDt-131" style="rounded=0;orthogonalLoop=1;jettySize=auto;html=1;exitX=0.5;exitY=1;exitDx=0;exitDy=0;entryX=0.5;entryY=0;entryDx=0;entryDy=0;" parent="1" source="0HiwVtReSsMU2_YjMYDt-135" target="0HiwVtReSsMU2_YjMYDt-136" edge="1">
          <mxGeometry relative="1" as="geometry">
            <mxPoint x="220" y="761" as="targetPoint" />
          </mxGeometry>
        </mxCell>
        <mxCell id="0HiwVtReSsMU2_YjMYDt-133" style="edgeStyle=orthogonalEdgeStyle;rounded=0;orthogonalLoop=1;jettySize=auto;html=1;exitX=0;exitY=0.5;exitDx=0;exitDy=0;entryX=0;entryY=0.5;entryDx=0;entryDy=0;" parent="1" source="0HiwVtReSsMU2_YjMYDt-135" target="0HiwVtReSsMU2_YjMYDt-122" edge="1">
          <mxGeometry relative="1" as="geometry">
            <mxPoint x="280" y="721" as="targetPoint" />
            <Array as="points">
              <mxPoint x="130" y="721" />
              <mxPoint x="130" y="581" />
            </Array>
          </mxGeometry>
        </mxCell>
        <mxCell id="0HiwVtReSsMU2_YjMYDt-134" value="否" style="edgeLabel;html=1;align=center;verticalAlign=middle;resizable=0;points=[];" parent="0HiwVtReSsMU2_YjMYDt-133" vertex="1" connectable="0">
          <mxGeometry x="-0.0565" y="-1" relative="1" as="geometry">
            <mxPoint as="offset" />
          </mxGeometry>
        </mxCell>
        <mxCell id="0HiwVtReSsMU2_YjMYDt-135" value="" style="rhombus;aspect=fixed;" parent="1" vertex="1">
          <mxGeometry x="210" y="711" width="20" height="20" as="geometry" />
        </mxCell>
        <mxCell id="0HiwVtReSsMU2_YjMYDt-140" value="" style="edgeStyle=orthogonalEdgeStyle;rounded=0;orthogonalLoop=1;jettySize=auto;html=1;entryX=0.5;entryY=0;entryDx=0;entryDy=0;" parent="1" source="0HiwVtReSsMU2_YjMYDt-136" target="y3JBYWDsK3w07EpLnPRo-21" edge="1">
          <mxGeometry relative="1" as="geometry">
            <mxPoint x="220" y="841" as="targetPoint" />
          </mxGeometry>
        </mxCell>
        <mxCell id="0HiwVtReSsMU2_YjMYDt-136" value="維護日程" style="html=1;dashed=0;rounded=1;absoluteArcSize=1;arcSize=20;verticalAlign=middle;align=center;whiteSpace=wrap;" parent="1" vertex="1">
          <mxGeometry x="160" y="761" width="120" height="50" as="geometry" />
        </mxCell>
        <mxCell id="0HiwVtReSsMU2_YjMYDt-149" value="" style="edgeStyle=orthogonalEdgeStyle;rounded=0;orthogonalLoop=1;jettySize=auto;html=1;" parent="1" source="0HiwVtReSsMU2_YjMYDt-139" target="0HiwVtReSsMU2_YjMYDt-148" edge="1">
          <mxGeometry relative="1" as="geometry" />
        </mxCell>
        <mxCell id="0HiwVtReSsMU2_YjMYDt-139" value="執行動態排程" style="whiteSpace=wrap;html=1;dashed=0;rounded=1;arcSize=20;" parent="1" vertex="1">
          <mxGeometry x="160" y="891" width="120" height="54" as="geometry" />
        </mxCell>
        <mxCell id="0HiwVtReSsMU2_YjMYDt-151" value="" style="edgeStyle=orthogonalEdgeStyle;rounded=0;orthogonalLoop=1;jettySize=auto;html=1;" parent="1" source="0HiwVtReSsMU2_YjMYDt-148" target="0HiwVtReSsMU2_YjMYDt-150" edge="1">
          <mxGeometry relative="1" as="geometry" />
        </mxCell>
        <mxCell id="0HiwVtReSsMU2_YjMYDt-148" value="使用者回饋" style="whiteSpace=wrap;html=1;dashed=0;rounded=1;arcSize=20;" parent="1" vertex="1">
          <mxGeometry x="160" y="981" width="120" height="60" as="geometry" />
        </mxCell>
        <mxCell id="0HiwVtReSsMU2_YjMYDt-150" value="" style="ellipse;html=1;shape=endState;fillColor=strokeColor;" parent="1" vertex="1">
          <mxGeometry x="205" y="1091" width="30" height="30" as="geometry" />
        </mxCell>
        <mxCell id="0HiwVtReSsMU2_YjMYDt-169" value="" style="edgeStyle=orthogonalEdgeStyle;rounded=0;orthogonalLoop=1;jettySize=auto;html=1;" parent="1" source="0HiwVtReSsMU2_YjMYDt-160" target="0HiwVtReSsMU2_YjMYDt-165" edge="1">
          <mxGeometry relative="1" as="geometry" />
        </mxCell>
        <mxCell id="0HiwVtReSsMU2_YjMYDt-170" value="是否修改個性化資料" style="edgeLabel;html=1;align=center;verticalAlign=middle;resizable=0;points=[];" parent="0HiwVtReSsMU2_YjMYDt-169" vertex="1" connectable="0">
          <mxGeometry x="0.1517" relative="1" as="geometry">
            <mxPoint as="offset" />
          </mxGeometry>
        </mxCell>
        <mxCell id="0HiwVtReSsMU2_YjMYDt-160" value="" style="ellipse;fillColor=strokeColor;html=1;" parent="1" vertex="1">
          <mxGeometry x="600" y="10" width="40" height="40" as="geometry" />
        </mxCell>
        <mxCell id="0HiwVtReSsMU2_YjMYDt-172" value="" style="edgeStyle=orthogonalEdgeStyle;rounded=0;orthogonalLoop=1;jettySize=auto;html=1;" parent="1" source="0HiwVtReSsMU2_YjMYDt-163" target="0HiwVtReSsMU2_YjMYDt-171" edge="1">
          <mxGeometry relative="1" as="geometry" />
        </mxCell>
        <mxCell id="0HiwVtReSsMU2_YjMYDt-163" value="修改個性化資料" style="whiteSpace=wrap;html=1;dashed=0;rounded=1;arcSize=20;" parent="1" vertex="1">
          <mxGeometry x="560" y="150" width="120" height="50" as="geometry" />
        </mxCell>
        <mxCell id="0HiwVtReSsMU2_YjMYDt-168" value="" style="edgeStyle=orthogonalEdgeStyle;rounded=0;orthogonalLoop=1;jettySize=auto;html=1;" parent="1" source="0HiwVtReSsMU2_YjMYDt-165" target="0HiwVtReSsMU2_YjMYDt-163" edge="1">
          <mxGeometry relative="1" as="geometry" />
        </mxCell>
        <mxCell id="0HiwVtReSsMU2_YjMYDt-173" style="edgeStyle=orthogonalEdgeStyle;rounded=0;orthogonalLoop=1;jettySize=auto;html=1;exitX=1;exitY=0.5;exitDx=0;exitDy=0;entryX=1;entryY=0.5;entryDx=0;entryDy=0;" parent="1" source="0HiwVtReSsMU2_YjMYDt-165" target="0HiwVtReSsMU2_YjMYDt-171" edge="1">
          <mxGeometry relative="1" as="geometry">
            <mxPoint x="719.9999999999998" y="250" as="targetPoint" />
            <Array as="points">
              <mxPoint x="720" y="110" />
              <mxPoint x="720" y="255" />
            </Array>
          </mxGeometry>
        </mxCell>
        <mxCell id="0HiwVtReSsMU2_YjMYDt-165" value="" style="rhombus;aspect=fixed;" parent="1" vertex="1">
          <mxGeometry x="610" y="100" width="20" height="20" as="geometry" />
        </mxCell>
        <mxCell id="0HiwVtReSsMU2_YjMYDt-171" value="" style="ellipse;html=1;shape=endState;fillColor=strokeColor;" parent="1" vertex="1">
          <mxGeometry x="605" y="240" width="30" height="30" as="geometry" />
        </mxCell>
        <mxCell id="y3JBYWDsK3w07EpLnPRo-3" value="" style="rhombus;aspect=fixed;" parent="1" vertex="1">
          <mxGeometry x="210" y="381" width="20" height="20" as="geometry" />
        </mxCell>
        <mxCell id="y3JBYWDsK3w07EpLnPRo-6" style="edgeStyle=orthogonalEdgeStyle;rounded=0;orthogonalLoop=1;jettySize=auto;html=1;entryX=0.524;entryY=0.253;entryDx=0;entryDy=0;entryPerimeter=0;" parent="1" source="0HiwVtReSsMU2_YjMYDt-104" target="y3JBYWDsK3w07EpLnPRo-3" edge="1">
          <mxGeometry relative="1" as="geometry" />
        </mxCell>
        <mxCell id="y3JBYWDsK3w07EpLnPRo-7" value="是否行程衝突?" style="edgeLabel;html=1;align=center;verticalAlign=middle;resizable=0;points=[];" parent="1" vertex="1" connectable="0">
          <mxGeometry x="220" y="361.0028571428571" as="geometry" />
        </mxCell>
        <mxCell id="y3JBYWDsK3w07EpLnPRo-17" value="是" style="edgeLabel;html=1;align=center;verticalAlign=middle;resizable=0;points=[];" parent="1" vertex="1" connectable="0">
          <mxGeometry x="310" y="274" as="geometry">
            <mxPoint x="3" y="134" as="offset" />
          </mxGeometry>
        </mxCell>
        <mxCell id="y3JBYWDsK3w07EpLnPRo-22" style="edgeStyle=orthogonalEdgeStyle;rounded=0;orthogonalLoop=1;jettySize=auto;html=1;" parent="1" source="y3JBYWDsK3w07EpLnPRo-21" target="0HiwVtReSsMU2_YjMYDt-139" edge="1">
          <mxGeometry relative="1" as="geometry" />
        </mxCell>
        <mxCell id="y3JBYWDsK3w07EpLnPRo-21" value="" style="rhombus;aspect=fixed;" parent="1" vertex="1">
          <mxGeometry x="210" y="851" width="20" height="20" as="geometry" />
        </mxCell>
        <mxCell id="y3JBYWDsK3w07EpLnPRo-23" value="是否建立其他排程?" style="edgeLabel;html=1;align=center;verticalAlign=middle;resizable=0;points=[];" parent="1" vertex="1" connectable="0">
          <mxGeometry x="220" y="831" as="geometry" />
        </mxCell>
        <mxCell id="y3JBYWDsK3w07EpLnPRo-24" style="edgeStyle=orthogonalEdgeStyle;rounded=0;orthogonalLoop=1;jettySize=auto;html=1;entryX=0;entryY=0.4;entryDx=0;entryDy=0;entryPerimeter=0;exitX=0;exitY=0.5;exitDx=0;exitDy=0;" parent="1" source="y3JBYWDsK3w07EpLnPRo-21" target="0HiwVtReSsMU2_YjMYDt-104" edge="1">
          <mxGeometry relative="1" as="geometry">
            <Array as="points">
              <mxPoint x="100" y="861" />
              <mxPoint x="100" y="311" />
            </Array>
          </mxGeometry>
        </mxCell>
        <mxCell id="y3JBYWDsK3w07EpLnPRo-25" value="是" style="edgeLabel;html=1;align=center;verticalAlign=middle;resizable=0;points=[];" parent="1" vertex="1" connectable="0">
          <mxGeometry x="141" y="669.3333333333333" as="geometry">
            <mxPoint x="26" y="189" as="offset" />
          </mxGeometry>
        </mxCell>
        <mxCell id="EQ1W5i1c5TUP3UbeLOFe-1" value="" style="edgeStyle=orthogonalEdgeStyle;rounded=0;orthogonalLoop=1;jettySize=auto;html=1;endArrow=classic;endFill=1;entryX=0.5;entryY=0;entryDx=0;entryDy=0;" edge="1" parent="1" source="EQ1W5i1c5TUP3UbeLOFe-3" target="EQ1W5i1c5TUP3UbeLOFe-9">
          <mxGeometry relative="1" as="geometry">
            <mxPoint x="850" y="222.5" as="targetPoint" />
          </mxGeometry>
        </mxCell>
        <mxCell id="EQ1W5i1c5TUP3UbeLOFe-2" value="是否已註冊帳號?" style="edgeLabel;html=1;align=center;verticalAlign=middle;resizable=0;points=[];" vertex="1" connectable="0" parent="EQ1W5i1c5TUP3UbeLOFe-1">
          <mxGeometry relative="1" as="geometry">
            <mxPoint as="offset" />
          </mxGeometry>
        </mxCell>
        <mxCell id="EQ1W5i1c5TUP3UbeLOFe-3" value="客戶登入" style="html=1;dashed=0;rounded=1;absoluteArcSize=1;arcSize=20;verticalAlign=middle;align=center;whiteSpace=wrap;" vertex="1" parent="1">
          <mxGeometry x="790" y="122.5" width="120" height="50" as="geometry" />
        </mxCell>
        <mxCell id="EQ1W5i1c5TUP3UbeLOFe-4" style="edgeStyle=orthogonalEdgeStyle;rounded=0;orthogonalLoop=1;jettySize=auto;html=1;exitX=0.5;exitY=1;exitDx=0;exitDy=0;endArrow=classic;endFill=1;" edge="1" parent="1" target="EQ1W5i1c5TUP3UbeLOFe-3">
          <mxGeometry relative="1" as="geometry">
            <mxPoint x="850" y="92.5" as="sourcePoint" />
          </mxGeometry>
        </mxCell>
        <mxCell id="EQ1W5i1c5TUP3UbeLOFe-5" style="edgeStyle=orthogonalEdgeStyle;rounded=0;orthogonalLoop=1;jettySize=auto;html=1;exitX=1;exitY=0.5;exitDx=0;exitDy=0;endArrow=classic;endFill=1;entryX=0;entryY=0.5;entryDx=0;entryDy=0;" edge="1" parent="1" source="EQ1W5i1c5TUP3UbeLOFe-9" target="EQ1W5i1c5TUP3UbeLOFe-8">
          <mxGeometry relative="1" as="geometry">
            <mxPoint x="1030" y="192.5" as="targetPoint" />
            <mxPoint x="890" y="262.5" as="sourcePoint" />
          </mxGeometry>
        </mxCell>
        <mxCell id="EQ1W5i1c5TUP3UbeLOFe-6" value="否" style="edgeLabel;html=1;align=center;verticalAlign=middle;resizable=0;points=[];" vertex="1" connectable="0" parent="EQ1W5i1c5TUP3UbeLOFe-5">
          <mxGeometry x="0.1563" relative="1" as="geometry">
            <mxPoint x="-19" as="offset" />
          </mxGeometry>
        </mxCell>
        <mxCell id="EQ1W5i1c5TUP3UbeLOFe-7" value="" style="edgeStyle=orthogonalEdgeStyle;rounded=0;orthogonalLoop=1;jettySize=auto;html=1;" edge="1" parent="1" source="EQ1W5i1c5TUP3UbeLOFe-8" target="EQ1W5i1c5TUP3UbeLOFe-11">
          <mxGeometry relative="1" as="geometry" />
        </mxCell>
        <mxCell id="EQ1W5i1c5TUP3UbeLOFe-8" value="註冊" style="html=1;dashed=0;rounded=1;absoluteArcSize=1;arcSize=20;verticalAlign=middle;align=center;whiteSpace=wrap;" vertex="1" parent="1">
          <mxGeometry x="990" y="207.5" width="120" height="50" as="geometry" />
        </mxCell>
        <mxCell id="EQ1W5i1c5TUP3UbeLOFe-9" value="" style="rhombus;aspect=fixed;" vertex="1" parent="1">
          <mxGeometry x="840" y="222.5" width="20" height="20" as="geometry" />
        </mxCell>
        <mxCell id="EQ1W5i1c5TUP3UbeLOFe-10" value="" style="edgeStyle=orthogonalEdgeStyle;rounded=0;orthogonalLoop=1;jettySize=auto;html=1;" edge="1" parent="1" source="EQ1W5i1c5TUP3UbeLOFe-11" target="EQ1W5i1c5TUP3UbeLOFe-3">
          <mxGeometry relative="1" as="geometry" />
        </mxCell>
        <mxCell id="EQ1W5i1c5TUP3UbeLOFe-11" value="填寫個性化問卷" style="whiteSpace=wrap;html=1;dashed=0;rounded=1;arcSize=20;" vertex="1" parent="1">
          <mxGeometry x="990" y="122.5" width="120" height="50" as="geometry" />
        </mxCell>
        <mxCell id="EQ1W5i1c5TUP3UbeLOFe-12" value="" style="ellipse;fillColor=strokeColor;html=1;" vertex="1" parent="1">
          <mxGeometry x="830" y="50" width="40" height="40" as="geometry" />
        </mxCell>
      </root>
    </mxGraphModel>
  </diagram>
</mxfile>
